<svg xmlns="http://www.w3.org/2000/svg" width="39.349" height="39.349" viewBox="0 0 39.349 39.349">
  <path id="person_24dp_1F1F1F_FILL0_wght400_GRAD0_opsz24" d="M179.675-780.325a9.473,9.473,0,0,1-6.948-2.89,9.473,9.473,0,0,1-2.89-6.948,9.473,9.473,0,0,1,2.89-6.948,9.473,9.473,0,0,1,6.948-2.89,9.473,9.473,0,0,1,6.948,2.89,9.473,9.473,0,0,1,2.89,6.948,9.473,9.473,0,0,1-2.89,6.948A9.473,9.473,0,0,1,179.675-780.325ZM160-760.651v-6.886a7.2,7.2,0,0,1,1.076-3.843,7.172,7.172,0,0,1,2.859-2.674,36.506,36.506,0,0,1,7.747-2.859,33.838,33.838,0,0,1,7.993-.953,33.838,33.838,0,0,1,7.993.953,36.506,36.506,0,0,1,7.747,2.859,7.172,7.172,0,0,1,2.859,2.674,7.2,7.2,0,0,1,1.076,3.843v6.886Zm4.919-4.919h29.512v-1.967a2.312,2.312,0,0,0-.338-1.23,2.394,2.394,0,0,0-.892-.861,32.059,32.059,0,0,0-6.7-2.49,28.53,28.53,0,0,0-6.825-.83,28.53,28.53,0,0,0-6.825.83,32.059,32.059,0,0,0-6.7,2.49,2.394,2.394,0,0,0-.892.861,2.312,2.312,0,0,0-.338,1.23Zm14.756-19.675a4.736,4.736,0,0,0,3.474-1.445,4.736,4.736,0,0,0,1.445-3.474,4.736,4.736,0,0,0-1.445-3.474,4.737,4.737,0,0,0-3.474-1.445,4.737,4.737,0,0,0-3.474,1.445,4.737,4.737,0,0,0-1.445,3.474,4.736,4.736,0,0,0,1.445,3.474A4.736,4.736,0,0,0,179.675-785.244ZM179.675-790.163ZM179.675-765.569Z" transform="translate(-160 800)" fill="#791e30"/>
</svg>
