<svg xmlns="http://www.w3.org/2000/svg" width="76.882" height="86.492" viewBox="0 0 76.882 86.492">
  <path id="food_bank_24dp_1F1F1F_FILL0_wght400_GRAD0_opsz24" d="M188.831-767.924h4.805v-19.22a6.951,6.951,0,0,0,5.105-2.1,6.951,6.951,0,0,0,2.1-5.105v-14.415h-4.805v14.415h-2.4v-14.415h-4.805v14.415h-2.4v-14.415h-4.805v14.415a6.951,6.951,0,0,0,2.1,5.105,6.951,6.951,0,0,0,5.105,2.1Zm19.22,0h4.805v-40.843a9.254,9.254,0,0,0-6.787,2.823,9.254,9.254,0,0,0-2.823,6.787v14.415h4.805ZM160-753.508v-57.661L198.441-840l38.441,28.831v57.661Zm9.61-9.61h57.661v-43.246l-28.831-21.623L169.61-806.364ZM198.441-795.553Z" transform="translate(-160 840)" fill="#791e30"/>
</svg>
