<svg xmlns="http://www.w3.org/2000/svg" width="102.349" height="81.687" viewBox="0 0 102.349 81.687">
  <path id="skillet_24dp_1F1F1F_FILL0_wght400_GRAD0_opsz24" d="M91.652-806.364a11.092,11.092,0,0,0,.541-7.688,21.683,21.683,0,0,0-3.9-6.727,26.5,26.5,0,0,1-5.226-9.07A23.948,23.948,0,0,1,82.643-840h9.37a17.846,17.846,0,0,0-.3,7.448,15.779,15.779,0,0,0,3.424,6.247q4.565,5.526,5.826,9.79a21.023,21.023,0,0,1,.06,10.151Zm19.22,0a11.371,11.371,0,0,0,.6-7.688,20.68,20.68,0,0,0-3.844-6.727,27.451,27.451,0,0,1-5.286-9.07A23.241,23.241,0,0,1,101.863-840h9.37a17.846,17.846,0,0,0-.3,7.448,15.78,15.78,0,0,0,3.424,6.247q4.565,5.526,5.826,9.79a21.023,21.023,0,0,1,.06,10.151Zm19.22,0a11.371,11.371,0,0,0,.6-7.688,20.68,20.68,0,0,0-3.844-6.727,27.451,27.451,0,0,1-5.286-9.07,23.241,23.241,0,0,1-.48-10.151h9.37a17.847,17.847,0,0,0-.3,7.448,15.779,15.779,0,0,0,3.424,6.247q4.565,5.526,5.826,9.79a21.023,21.023,0,0,1,.06,10.151ZM94.415-758.313a13.9,13.9,0,0,1-10.211-4.2A13.9,13.9,0,0,1,80-772.729v-24.026h67.392a13.786,13.786,0,0,1,3.243-7.148,14.751,14.751,0,0,1,6.487-4.385l22.224-7.448,3,9.13-22.224,7.448a4.607,4.607,0,0,0-2.342,1.742,4.742,4.742,0,0,0-.9,2.823v21.863a13.9,13.9,0,0,1-4.2,10.211,13.9,13.9,0,0,1-10.211,4.2Zm0-9.61h48.051a4.649,4.649,0,0,0,3.424-1.381,4.649,4.649,0,0,0,1.381-3.424v-14.415H89.61v14.415a4.649,4.649,0,0,0,1.381,3.424A4.649,4.649,0,0,0,94.415-767.924ZM118.441-777.534Z" transform="translate(-80 840)" fill="#791e30"/>
</svg>
