<svg xmlns="http://www.w3.org/2000/svg" width="105.712" height="100.907" viewBox="0 0 105.712 100.907">
  <path id="dine_heart_24dp_1F1F1F_FILL0_wght400_GRAD0_opsz24" d="M92.856-871.949Q84.687-879.4,79.522-884.5a93.422,93.422,0,0,1-8.049-8.829,27.054,27.054,0,0,1-3.964-6.547,15.843,15.843,0,0,1-1.081-5.706,13.9,13.9,0,0,1,4.2-10.211A14.044,14.044,0,0,1,80.963-920a14.8,14.8,0,0,1,6.487,1.5,17.352,17.352,0,0,1,5.406,4.024,17.352,17.352,0,0,1,5.406-4.024,14.8,14.8,0,0,1,6.487-1.5,14.044,14.044,0,0,1,10.331,4.2,13.9,13.9,0,0,1,4.2,10.211,15.843,15.843,0,0,1-1.081,5.706,27.054,27.054,0,0,1-3.964,6.547,93.422,93.422,0,0,1-8.049,8.829Q101.025-879.4,92.856-871.949Zm0-12.974a136.079,136.079,0,0,0,12.734-12.914q4.084-4.985,4.084-7.748a4.551,4.551,0,0,0-1.442-3.424,4.852,4.852,0,0,0-3.484-1.381,5.369,5.369,0,0,0-2.823.841,12.207,12.207,0,0,0-2.823,2.523l-6.127,7.088-6.126-6.847a14.034,14.034,0,0,0-3.063-2.763,5.369,5.369,0,0,0-2.823-.841,4.852,4.852,0,0,0-3.484,1.381,4.551,4.551,0,0,0-1.442,3.424q0,2.763,4.084,7.748A136.079,136.079,0,0,0,92.856-884.923ZM49.61-819.093v-14.656a7.167,7.167,0,0,1-3.6-2.282,7.212,7.212,0,0,1-1.682-4.084L40-886.364h3a6.992,6.992,0,0,1,4.865,1.922,6.975,6.975,0,0,1,2.342,4.685l2.883,31.834H73.636a9.254,9.254,0,0,1,6.787,2.823,9.254,9.254,0,0,1,2.823,6.787v4.805H78.441v14.415H71.233v-14.415H56.818v14.415Zm38.441,0v-38.441H59.22a9.254,9.254,0,0,1,2.823-6.787,9.254,9.254,0,0,1,6.787-2.823h48.051a9.254,9.254,0,0,1,6.787,2.823,9.254,9.254,0,0,1,2.823,6.787H97.661v38.441Zm19.22,0v-14.415h-4.805v-4.805a9.254,9.254,0,0,1,2.823-6.787,9.254,9.254,0,0,1,6.787-2.823h20.662l2.883-31.834a7.079,7.079,0,0,1,2.282-4.685,6.782,6.782,0,0,1,4.805-1.922h3l-4.2,46.249a7.01,7.01,0,0,1-1.742,4.084,7.512,7.512,0,0,1-3.664,2.282v14.656h-7.208v-14.415H114.479v14.415ZM92.856-884.923Z" transform="translate(-40 920)" fill="#791e30"/>
</svg>
