<svg xmlns="http://www.w3.org/2000/svg" width="105.712" height="96.102" viewBox="0 0 105.712 96.102">
  <path id="hand_meal_24dp_1F1F1F_FILL0_wght400_GRAD0_opsz24_1_" data-name="hand_meal_24dp_1F1F1F_FILL0_wght400_GRAD0_opsz24 (1)" d="M40-827.144v-9.61h9.73A42.183,42.183,0,0,1,62.1-862.7a42.183,42.183,0,0,1,25.948-12.373V-880h9.61v4.925A42.183,42.183,0,0,1,123.609-862.7a42.183,42.183,0,0,1,12.373,25.948h9.73v9.61Zm19.581-9.61h66.551a32.276,32.276,0,0,0-11.112-20.6,32.635,32.635,0,0,0-22.164-8.229,32.635,32.635,0,0,0-22.164,8.229A32.276,32.276,0,0,0,59.581-836.754Zm44.687,9.61H73.636v28.831H100.3a14.291,14.291,0,0,0,4.865-.841,13.2,13.2,0,0,0,4.265-2.523l19.941-16.457a6.4,6.4,0,0,0-2.162-1.442,13.065,13.065,0,0,0-2.523-.721,9.419,9.419,0,0,0-3.964.12,9.545,9.545,0,0,0-3.6,1.8l-12.974,10.451h-20.9v-9.61h17.539l5.286-4.325a2.311,2.311,0,0,0,.9-.961,2.913,2.913,0,0,0,.3-1.321,2.881,2.881,0,0,0-.9-2.1A2.881,2.881,0,0,0,104.268-827.144Zm-40.243,0h-9.61v33.636h9.61Zm0,43.246h-9.61a9.254,9.254,0,0,1-6.787-2.823,9.254,9.254,0,0,1-2.823-6.787v-33.636a9.254,9.254,0,0,1,2.823-6.787,9.254,9.254,0,0,1,6.787-2.823h49.853a56.726,56.726,0,0,1,19.7,3.484A31.3,31.3,0,0,1,139.225-821.5l3.243,4.925L115.68-794.229a22.4,22.4,0,0,1-7.208,4.144A24.65,24.65,0,0,1,100.3-788.7H72.314a10.355,10.355,0,0,1-3.484,3.484A9.035,9.035,0,0,1,64.025-783.9ZM92.856-836.754Z" transform="translate(-40 880)" fill="#791e30"/>
</svg>
