<svg id="Group_203" data-name="Group 203" xmlns="http://www.w3.org/2000/svg" xmlns:xlink="http://www.w3.org/1999/xlink" width="216.273" height="216.241" viewBox="0 0 216.273 216.241">
  <defs>
    <clipPath id="clip-path">
      <rect id="Rectangle_107" data-name="Rectangle 107" width="216.273" height="216.241" fill="#fafafa"/>
    </clipPath>
  </defs>
  <text id="A" transform="translate(7.709 123.745) rotate(77.628)" fill="#fafafa" font-size="18" font-family="Barlow-Medium, Barlow" font-weight="500"><tspan x="0" y="0">A</tspan></text>
  <text id="R" transform="translate(11.632 140.016) rotate(68.205)" fill="#fafafa" font-size="18" font-family="Barlow-Medium, Barlow" font-weight="500"><tspan x="0" y="0">R</tspan></text>
  <text id="U" transform="matrix(0.519, 0.855, -0.855, 0.519, 17.168, 155.668)" fill="#fafafa" font-size="19" font-family="Barlow-Medium, Barlow" font-weight="500"><tspan x="0" y="0">U</tspan></text>
  <text id="P" transform="translate(27.885 168.789) rotate(49.474)" fill="#fafafa" font-size="17" font-family="Barlow-Medium, Barlow" font-weight="500"><tspan x="0" y="0">P</tspan></text>
  <text id="A-2" data-name="A" transform="matrix(0.758, 0.652, -0.652, 0.758, 37.179, 180.862)" fill="#fafafa" font-size="18" font-family="Barlow-Medium, Barlow" font-weight="500"><tspan x="0" y="0">A</tspan></text>
  <text id="D" transform="matrix(0.854, 0.521, -0.521, 0.854, 50.094, 191.533)" fill="#fafafa" font-size="18" font-family="Barlow-Medium, Barlow" font-weight="500"><tspan x="0" y="0">D</tspan></text>
  <text id="A-3" data-name="A" transform="translate(63.778 199.573) rotate(22.312)" fill="#fafafa" font-size="18" font-family="Barlow-Medium, Barlow" font-weight="500"><tspan x="0" y="0">A</tspan></text>
  <text id="I" transform="translate(78.712 207.328) rotate(15.031)" fill="#fafafa" font-size="20" font-family="Barlow-Medium, Barlow" font-weight="500"><tspan x="0" y="0">I</tspan></text>
  <text id="_" data-name=" " transform="translate(87.365 209.473) rotate(10.398)" fill="#fafafa" font-size="20" font-family="Barlow-Medium, Barlow" font-weight="500"><tspan x="0" y="0"> </tspan></text>
  <g id="Group_195" data-name="Group 195">
    <g id="Group_194" data-name="Group 194" clip-path="url(#clip-path)">
      <text id="A-4" data-name="A" transform="translate(95.398 208.946) rotate(3.559)" fill="#fafafa" font-size="18" font-family="Barlow-Medium, Barlow" font-weight="500"><tspan x="0" y="0">A</tspan></text>
      <text id="R-2" data-name="R" transform="matrix(0.995, -0.098, 0.098, 0.995, 112.075, 209.65)" fill="#fafafa" font-size="18" font-family="Barlow-Medium, Barlow" font-weight="500"><tspan x="0" y="0">R</tspan></text>
    </g>
  </g>
  <text id="U-2" data-name="U" transform="translate(128.637 208.695) rotate(-15.098)" fill="#fafafa" font-size="19" font-family="Barlow-Medium, Barlow" font-weight="500"><tspan x="0" y="0">U</tspan></text>
  <text id="S" transform="translate(144.233 202.045) rotate(-24.438)" fill="#fafafa" font-size="17" font-family="Barlow-Medium, Barlow" font-weight="500"><tspan x="0" y="0">S</tspan></text>
  <text id="U-3" data-name="U" transform="matrix(0.832, -0.555, 0.555, 0.832, 159.539, 196.959)" fill="#fafafa" font-size="19" font-family="Barlow-Medium, Barlow" font-weight="500"><tspan x="0" y="0">U</tspan></text>
  <text id="V" transform="translate(173.57 187.145) rotate(-43.025)" fill="#fafafa" font-size="19" font-family="Barlow-Medium, Barlow" font-weight="500"><tspan x="0" y="0">V</tspan></text>
  <text id="A-5" data-name="A" transform="matrix(0.628, -0.778, 0.778, 0.628, 183.101, 176.72)" fill="#fafafa" font-size="18" font-family="Barlow-Medium, Barlow" font-weight="500"><tspan x="0" y="0">A</tspan></text>
  <text id="I-2" data-name="I" transform="translate(194.795 164.642) rotate(-58.285)" fill="#fafafa" font-size="20" font-family="Barlow-Medium, Barlow" font-weight="500"><tspan x="0" y="0">I</tspan></text>
  <text id="_2" data-name=" " transform="translate(199.338 156.962) rotate(-62.9)" fill="#fafafa" font-size="20" font-family="Barlow-Medium, Barlow" font-weight="500"><tspan x="0" y="0"> </tspan></text>
  <text id="_3" data-name=" " transform="matrix(0.388, -0.922, 0.922, 0.388, 202.704, 150.09)" fill="#fafafa" font-size="20" font-family="Barlow-Medium, Barlow" font-weight="500"><tspan x="0" y="0"> </tspan></text>
  <text id="_4" data-name="*" transform="matrix(0.298, -0.955, 0.955, 0.298, 203.762, 142.223)" fill="#fafafa" font-size="18" font-family="Barlow-Medium, Barlow" font-weight="500"><tspan x="0" y="0">*</tspan></text>
  <text id="_5" data-name=" " transform="translate(208.931 131.45) rotate(-78.144)" fill="#fafafa" font-size="20" font-family="Barlow-Medium, Barlow" font-weight="500"><tspan x="0" y="0"> </tspan></text>
  <text id="_6" data-name=" " transform="translate(210.371 123.939) rotate(-82.394)" fill="#fafafa" font-size="20" font-family="Barlow-Medium, Barlow" font-weight="500"><tspan x="0" y="0"> </tspan></text>
  <g id="Group_197" data-name="Group 197">
    <g id="Group_196" data-name="Group 196" clip-path="url(#clip-path)">
      <text id="I-3" data-name="I" transform="matrix(0.053, -0.999, 0.999, 0.053, 211.268, 116.289)" fill="#fafafa" font-size="20" font-family="Barlow-Medium, Barlow" font-weight="500"><tspan x="0" y="0">I</tspan></text>
      <text id="N" transform="translate(209.772 107.123) rotate(-94.329)" fill="#fafafa" font-size="18" font-family="Barlow-Medium, Barlow" font-weight="500"><tspan x="0" y="0">N</tspan></text>
    </g>
  </g>
  <text id="D-2" data-name="D" transform="matrix(-0.24, -0.971, 0.971, -0.24, 208.097, 89.794)" fill="#fafafa" font-size="18" font-family="Barlow-Medium, Barlow" font-weight="500"><tspan x="0" y="0">D</tspan></text>
  <text id="I-4" data-name="I" transform="translate(205.623 73.418) rotate(-111.059)" fill="#fafafa" font-size="20" font-family="Barlow-Medium, Barlow" font-weight="500"><tspan x="0" y="0">I</tspan></text>
  <text id="A-6" data-name="A" transform="matrix(-0.474, -0.88, 0.88, -0.474, 200.492, 65.676)" fill="#fafafa" font-size="18" font-family="Barlow-Medium, Barlow" font-weight="500"><tspan x="0" y="0">A</tspan></text>
  <text id="N-2" data-name="N" transform="translate(192.267 51.065) rotate(-128.013)" fill="#fafafa" font-size="18" font-family="Barlow-Medium, Barlow" font-weight="500"><tspan x="0" y="0">N</tspan></text>
  <text id="_7" data-name=" " transform="matrix(-0.708, -0.706, 0.706, -0.708, 182.581, 36.308)" fill="#fafafa" font-size="20" font-family="Barlow-Medium, Barlow" font-weight="500"><tspan x="0" y="0"> </tspan></text>
  <text id="H" transform="translate(176.279 31.386) rotate(-141.987)" fill="#fafafa" font-size="19" font-family="Barlow-Medium, Barlow" font-weight="500"><tspan x="0" y="0">H</tspan></text>
  <text id="O" transform="translate(162.02 21.955) rotate(-151.466)" fill="#fafafa" font-size="18" font-family="Barlow-Medium, Barlow" font-weight="500"><tspan x="0" y="0">O</tspan></text>
  <text id="M" transform="translate(147.241 14.236) rotate(-161.459)" fill="#fafafa" font-size="18" font-family="Barlow-Medium, Barlow" font-weight="500"><tspan x="0" y="0">M</tspan></text>
  <g id="Group_199" data-name="Group 199">
    <g id="Group_198" data-name="Group 198" clip-path="url(#clip-path)">
      <text id="E" transform="translate(129.715 7.797) rotate(-171.301)" fill="#fafafa" font-size="19" font-family="Barlow-Medium, Barlow" font-weight="500"><tspan x="0" y="0">E</tspan></text>
      <text id="M-2" data-name="M" transform="matrix(-1, 0.017, -0.017, -1, 113.603, 6.595)" fill="#fafafa" font-size="18" font-family="Barlow-Medium, Barlow" font-weight="500"><tspan x="0" y="0">M</tspan></text>
    </g>
  </g>
  <text id="A-7" data-name="A" transform="matrix(-0.982, 0.189, -0.189, -0.982, 95.134, 7.326)" fill="#fafafa" font-size="18" font-family="Barlow-Medium, Barlow" font-weight="500"><tspan x="0" y="0">A</tspan></text>
  <text id="D-3" data-name="D" transform="translate(78.744 10.824) rotate(159.669)" fill="#fafafa" font-size="18" font-family="Barlow-Medium, Barlow" font-weight="500"><tspan x="0" y="0">D</tspan></text>
  <text id="E-2" data-name="E" transform="translate(62.905 16.006) rotate(150.425)" fill="#fafafa" font-size="19" font-family="Barlow-Medium, Barlow" font-weight="500"><tspan x="0" y="0">E</tspan></text>
  <text id="_8" data-name=" " transform="matrix(-0.807, 0.591, -0.591, -0.807, 48.728, 23.432)" fill="#fafafa" font-size="20" font-family="Barlow-Medium, Barlow" font-weight="500"><tspan x="0" y="0"> </tspan></text>
  <text id="F" transform="matrix(-0.736, 0.677, -0.677, -0.736, 43.643, 29.637)" fill="#fafafa" font-size="18" font-family="Barlow-Medium, Barlow" font-weight="500"><tspan x="0" y="0">F</tspan></text>
  <text id="O-2" data-name="O" transform="matrix(-0.622, 0.783, -0.783, -0.622, 32.553, 40.205)" fill="#fafafa" font-size="18" font-family="Barlow-Medium, Barlow" font-weight="500"><tspan x="0" y="0">O</tspan></text>
  <text id="O-3" data-name="O" transform="matrix(-0.486, 0.874, -0.874, -0.486, 22.503, 53.392)" fill="#fafafa" font-size="18" font-family="Barlow-Medium, Barlow" font-weight="500"><tspan x="0" y="0">O</tspan></text>
  <text id="D-4" data-name="D" transform="translate(14.734 68.039) rotate(109.713)" fill="#fafafa" font-size="18" font-family="Barlow-Medium, Barlow" font-weight="500"><tspan x="0" y="0">D</tspan></text>
  <text id="_9" data-name=" " transform="translate(7.765 83.013) rotate(102.875)" fill="#fafafa" font-size="20" font-family="Barlow-Medium, Barlow" font-weight="500"><tspan x="0" y="0"> </tspan></text>
  <text id="_10" data-name=" " transform="translate(6.188 90.517) rotate(98.609)" fill="#fafafa" font-size="20" font-family="Barlow-Medium, Barlow" font-weight="500"><tspan x="0" y="0"> </tspan></text>
  <g id="Group_201" data-name="Group 201">
    <g id="Group_200" data-name="Group 200" clip-path="url(#clip-path)">
      <text id="_11" data-name="*" transform="translate(7.1 98.365) rotate(93.196)" fill="#fafafa" font-size="18" font-family="Barlow-Medium, Barlow" font-weight="500"><tspan x="0" y="0">*</tspan></text>
      <text id="_12" data-name=" " transform="translate(4.714 110.061) rotate(87.846)" fill="#fafafa" font-size="20" font-family="Barlow-Medium, Barlow" font-weight="500"><tspan x="0" y="0"> </tspan></text>
      <text id="_13" data-name=" " transform="translate(5.135 117.707) rotate(83.636)" fill="#fafafa" font-size="20" font-family="Barlow-Medium, Barlow" font-weight="500"><tspan x="0" y="0"> </tspan></text>
    </g>
  </g>
</svg>
