<svg xmlns="http://www.w3.org/2000/svg" width="126.921" height="126.921" viewBox="0 0 126.921 126.921">
  <path id="award_meal_24dp_1F1F1F_FILL0_wght400_GRAD0_opsz24" d="M91.461-805.079,72.647-823.612H46.533v-26.114L28-868.539l18.533-18.814v-26.114H72.647L91.461-932l18.814,18.533h26.114v26.114l18.533,18.814-18.533,18.814v26.114H110.274Zm0-15.725,11.232-11.232v-20.779a15.606,15.606,0,0,1-6.037-7.09,26.189,26.189,0,0,1-2.387-11.443,25.423,25.423,0,0,1,3.65-13.9Q101.569-891,106.9-891q5.195,0,8.915,5.756a25.057,25.057,0,0,1,3.721,13.9,26.533,26.533,0,0,1-2.387,11.583,14.726,14.726,0,0,1-6.037,6.95v17.971h14.04V-854.5l14.04-14.04-14.04-14.04v-19.656H105.5l-14.04-14.04-14.04,14.04H57.765v19.656l-14.04,14.04,14.04,14.04v19.656H71.8v-22.464a10.527,10.527,0,0,1-6.037-3.861,10.89,10.89,0,0,1-2.387-6.95V-891H69v21.2h4.212V-891h5.616v21.2h4.212V-891h5.616v22.885a10.89,10.89,0,0,1-2.387,6.95,10.527,10.527,0,0,1-6.037,3.861v25.272ZM91.461-868.539Z" transform="translate(-28 932)" fill="#fff"/>
</svg>
