<svg xmlns="http://www.w3.org/2000/svg" width="106.704" height="112.319" viewBox="0 0 106.704 112.319">
  <path id="chef_hat_24dp_1F1F1F_FILL0_wght400_GRAD0_opsz24" d="M136.5-812.608h11.232v-28.08H136.5Zm-22.464-8.424a24.983,24.983,0,0,1-10.249-9.337A24.69,24.69,0,0,1,100-843.637a24.378,24.378,0,0,1,7.231-17.831,24.026,24.026,0,0,1,17.761-7.3,21.761,21.761,0,0,1,3.44.281q1.755.281,3.44.7A25.423,25.423,0,0,1,141-876.771,24.347,24.347,0,0,1,153.352-880a24.347,24.347,0,0,1,12.355,3.229,25.423,25.423,0,0,1,9.126,8.986q1.685-.421,3.37-.7a21.334,21.334,0,0,1,3.51-.281,24.026,24.026,0,0,1,17.76,7.3,24.378,24.378,0,0,1,7.231,17.831,24.691,24.691,0,0,1-3.791,13.268,24.983,24.983,0,0,1-10.249,9.337v30.888H114.04Zm44.928,8.424H170.2v-28.08H158.968Zm-33.7,11.232h56.16v-26.536L187.609-831a14.22,14.22,0,0,0,5.756-5.125,13.413,13.413,0,0,0,2.106-7.371,13.679,13.679,0,0,0-4-9.968,13.162,13.162,0,0,0-9.758-4.072,12.968,12.968,0,0,0-2.808.281q-1.264.281-2.668.7l-6.6,1.825-4.352-7.3a13.762,13.762,0,0,0-5.125-4.984,13.8,13.8,0,0,0-6.809-1.755,13.8,13.8,0,0,0-6.809,1.755,13.762,13.762,0,0,0-5.125,4.984l-4.352,7.3-6.739-1.825q-1.4-.281-2.738-.632a10.715,10.715,0,0,0-2.738-.351,12.935,12.935,0,0,0-9.688,4.072,13.808,13.808,0,0,0-3.931,9.968,13.412,13.412,0,0,0,2.106,7.371A14.22,14.22,0,0,0,119.094-831l6.178,3.089ZM114.04-790.144h11.232v11.232h56.16v-11.232h11.232v22.464H114.04ZM153.352-801.376Z" transform="translate(-100 880)" fill="#791e30"/>
</svg>
