<svg xmlns="http://www.w3.org/2000/svg" width="46.854" height="46.898" viewBox="0 0 46.854 46.898">
  <path id="shopping_cart_24dp_1F1F1F_FILL0_wght400_GRAD0_opsz24" d="M54.069-833.1a4.516,4.516,0,0,1-3.312-1.378,4.516,4.516,0,0,1-1.378-3.312,4.516,4.516,0,0,1,1.378-3.312,4.516,4.516,0,0,1,3.312-1.378,4.516,4.516,0,0,1,3.312,1.378,4.516,4.516,0,0,1,1.378,3.312,4.516,4.516,0,0,1-1.378,3.312A4.516,4.516,0,0,1,54.069-833.1Zm23.449,0a4.516,4.516,0,0,1-3.312-1.378,4.516,4.516,0,0,1-1.378-3.312,4.516,4.516,0,0,1,1.378-3.312,4.516,4.516,0,0,1,3.312-1.378A4.516,4.516,0,0,1,80.83-841.1a4.516,4.516,0,0,1,1.378,3.312,4.516,4.516,0,0,1-1.378,3.312A4.516,4.516,0,0,1,77.518-833.1ZM52.076-870.62,57.7-858.9H74.118l6.448-11.724Zm-2.228-4.69H84.436a2.244,2.244,0,0,1,2.052,1.2,2.364,2.364,0,0,1,.059,2.433l-8.324,15.007a4.7,4.7,0,0,1-1.729,1.817,4.561,4.561,0,0,1-2.374.645H56.649l-2.579,4.69H82.208v4.69H54.069a4.341,4.341,0,0,1-3.986-2.316,4.432,4.432,0,0,1-.117-4.6l3.166-5.745L44.69-875.31H40V-880h7.621ZM57.7-858.9h0Z" transform="translate(-40 880)" fill="#791e30"/>
</svg>
